PathFileType	4	(X/Y/Z)	C:/Users/beibeiliu/ov580/test_trc/User3\sequence.16_training_dense_right.trc
DataRate	CameraRate	NumFrames	NumMarkers	Units	OrigDataRate	OrigDataStartFrame	OrigNumFrames
120	120	16	19	mm	120	30	58
Frame#	Time	ThumbCMC			ThumbMCP			ThumbIP			ThumbTip			IndexMCP			IndexPIP			IndexTip			MiddleMCP			MiddlePIP			MiddleTip			RingMCP			RingPIP			RingTip			PinkyMCP			PinkyPIP			PinkyTip			BackHand1			BackHand2			BackHand3	
		X0	Y0	Z0	X1	Y1	Z1	X2	Y2	Z2	X3	Y3	Z3	X4	Y4	Z4	X5	Y5	Z5	X6	Y6	Z6	X7	Y7	Z7	X8	Y8	Z8	X9	Y9	Z9	X10	Y10	Z10	X11	Y11	Z11	X12	Y12	Z12	X13	Y13	Z13	X14	Y14	Z14	X15	Y15	Z15	X16	Y16	Z16	X17	Y17	Z17	X18	Y18	Z18	
29	0.241667	168.639	-54.727	4.40219	164.391	-39.7427	-30.0031	150.638	-38.4761	-61.6281	124.413	-52.0494	-67.3196	178.101	-101.79	-60.3148	184.691	-101.224	-85.0073	183.831	-89.7808	-110.896	159.032	-117.527	-60.126	161.421	-118.286	-91.5116	161.345	-98.3734	-123.15	136.287	-109.98	-56.2737	136.192	-104.765	-88.3804	131.645	-77.642	-104.031	113.913	-96.8286	-49.4193	109.712	-81.0833	-74.2853	108.072	-54.7355	-76.5023	133.591	-105.807	-5.49033	126.648	-99.2245	25.5518	164.96	-91.4973	11.1187	
30	0.25	184.086	-48.1839	5.58802	177.838	-37.6347	-29.7756	166.004	-40.9925	-57.2095	147.418	-57.1353	-67.0163	213.788	-91.4668	-48.2425	217.414	-93.426	-77.5245	218.087	-85.0167	-101.705	197.468	-113.158	-50.8694	205.269	-116.026	-82.7722	200.33	-101.052	-113.947	174.745	-114.856	-51.561	177.488	-110.492	-81.5223	161.868	-85.9512	-100.594	149.15	-105.998	-47.3034	146.081	-93.8815	-71.49	137.393	-70.3508	-78.267	162.135	-107.248	0.358024	153.727	-99.8719	26.5979	187.482	-86.1174	17.8094	
31	0.258333	189.403	-33.4391	8.40418	182.198	-26.712	-30.939	174.555	-33.3599	-57.7442	162.013	-56.9169	-70.4558	234.717	-66.9275	-41.3211	245.573	-62.6828	-71.6856	242.44	-56.7703	-98.0658	231.62	-90.9847	-45.7718	240.821	-91.1898	-75.1469	236.721	-76.3668	-110.054	211.297	-97.9989	-48.0405	211.637	-95.5584	-77.9446	197.766	-77.5497	-96.4436	180.58	-102.501	-45.5234	176.758	-92.1304	-69.4122	162.84	-68.6591	-77.3237	192.818	-94.7991	2.43608	180.408	-91.1685	31.6118	204.377	-69.8951	19.9372	
32	0.266667	183.416	-15.2518	9.88245	176.684	-12.4395	-32.4559	174.266	-21.711	-62.4538	172.456	-49.6677	-71.8914	241.444	-29.7473	-39.065	250.35	-18.7338	-70.7227	246.195	-14.7006	-93.3386	245.174	-53.2263	-41.6493	258.386	-47.0443	-73.0676	250.249	-43.0536	-107.07	231.758	-69.1533	-44.7223	235.369	-64.648	-74.9257	210.867	-56.6102	-96.7522	206.959	-84.0679	-43.6553	197.849	-80.7075	-70.7606	175.179	-60.2546	-76.7404	211.838	-76.6738	4.48808	195.982	-78.9635	27.7846	213.88	-46.1567	18.096	
33	0.275	165.433	-7.61107	5.95149	156.023	-3.48055	-30.9248	159.558	-12.6684	-61.9476	173.47	-37.0962	-76.8561	224.663	12.6421	-42.6265	228.716	21.0549	-68.3804	224.567	21.8012	-94.9392	238.671	-14.0944	-42.5982	249.399	-0.761212	-72.0935	241.05	3.65841	-104.686	236.182	-31.7293	-48.3462	236.437	-27.7631	-76.6484	213.017	-31.6952	-96.0703	220.029	-54.8055	-47.9983	210.57	-53.7654	-73.1066	179.6	-51.1657	-82.2525	218.855	-46.1199	3.73241	204.879	-53.9442	25.1013	201.138	-17.081	19.6245	
34	0.283333	145.175	-6.41993	0.781602	136.261	-1.55682	-36.4519	145.385	-7.10738	-61.654	166.677	-20.7046	-80.3039	190.903	35.9902	-42.2337	188.022	53.7808	-70.3898	184.776	54.1792	-93.5925	211.518	30.2656	-43.1484	217.507	41.9911	-69.4054	208.481	41.1881	-106.506	216.707	7.17564	-47.406	217.833	10.5869	-75.8386	192.332	-1.93598	-97.9362	214.324	-20.5106	-50.1883	205.569	-23.2485	-75.8108	179.851	-31.6976	-84.0035	206.94	-19.9902	0.529723	196.711	-33.7008	23.5555	180.581	0.431706	14.6295	
35	0.291667	127.276	-11.4089	-0.293173	119.27	-2.82426	-40.0217	127.387	-1.48595	-68.342	153.131	-7.23239	-78.5639	151.589	53.6827	-42.3566	150.58	63.9942	-66.6468	141.545	67.875	-92.4947	179.49	52.1393	-42.9249	179.915	67.2911	-69.6339	174.016	63.4581	-104.203	192.824	29.5899	-48.7474	186.59	36.9236	-80.4348	172.301	12.6969	-100.132	197.913	7.4421	-54.6134	191.461	3.30332	-76.4962	170.507	-17.0527	-86.1688	188.059	4.32991	-0.819826	185.716	-18.4431	21.3842	160.646	7.70086	13.0328	
36	0.3	114.953	-13.3292	-7.08534	104.776	-11.7497	-40.5812	114.96	-3.77345	-74.1008	138.726	-6.78023	-84.5302	128.59	50.2654	-48.086	117.335	62.7404	-72.3814	113.472	60.5035	-98.9976	149.613	55.4285	-48.4887	149.387	69.3994	-74.8255	138.737	65.4809	-112.129	167.687	36.7731	-54.8795	162.244	40.5749	-87.5507	150.187	16.2495	-104.639	182.103	12.6424	-58.5662	171.742	6.17872	-87.887	157.223	-11.7646	-92.9188	171.139	9.78347	-8.97224	173.051	-6.25182	12.1277	143.059	7.44089	9.2737	
37	0.308333	104.788	-25.8166	-8.07257	89.8017	-28.3096	-44.0359	99.6303	-24.8891	-79.0216	125.457	-26.5495	-88.5955	106.053	31.5125	-61.9431	96.0763	39.2391	-88.7602	82.5463	30.936	-114.411	130.266	40.6993	-65.6832	126.554	50.2906	-95.2497	116.472	38.9547	-129.122	147.921	25.3719	-68.5207	139.629	24.2552	-101.764	129.366	0.232297	-115.68	164.456	2.39546	-72.3811	153.778	-9.10028	-96.8192	138.777	-32.7668	-97.0603	158.058	6.44776	-18.948	164.824	-5.93782	2.38217	128.513	6.39008	-4.71604	
38	0.316667	92.5098	-35.7667	-8.08428	79.0441	-48.8213	-42.3768	88.1323	-53.9841	-76.0442	111.583	-57.7306	-85.9819	86.1746	5.13698	-79.1376	72.2035	2.12437	-104.144	64.2344	-14.9764	-125.669	113.559	13.236	-82.6154	101.874	16.7647	-111.58	90.3145	-1.053	-143.393	127.342	1.98615	-84.759	123.873	-3.95946	-111.941	111.964	-32.5834	-124.148	148.11	-19.9724	-78.3318	142.532	-34.1262	-100.641	127.926	-58.5089	-98.8125	142.365	-5.78372	-30.8651	148.51	-10.0217	-6.32665	115.552	-1.4325	-13.6423	
39	0.325	79.2028	-45.0716	-6.62286	72.631	-67.099	-40.0094	83.7287	-79.4407	-65.7978	105.411	-85.0754	-74.3706	73.1203	-23.2452	-79.1951	58.8421	-32.4113	-105.3	50.2286	-54.78	-123.047	94.9732	-13.9636	-92.3762	87.3619	-21.4373	-122.658	78.3143	-45.5461	-146.566	117.794	-25.3857	-92.1214	109.442	-38.0356	-116.446	100.809	-68.9287	-122.951	134.343	-43.0671	-80.1192	130.687	-64.6669	-98.9324	118.715	-90.0893	-90.8122	133.357	-18.1093	-38.5983	141.125	-17.6276	-9.63174	102.305	-10.6362	-20.4404	
40	0.333333	72.2064	-51.135	-6.05102	65.4789	-81.0548	-27.4746	74.3964	-101.2	-50.8333	99.4353	-104.167	-60.7199	64.3062	-44.7746	-79.8433	53.7295	-61.906	-102.216	43.8687	-88.8961	-115.028	90.2292	-41.1996	-92.7401	77.3875	-52.7268	-116.705	66.5302	-80.8449	-138.421	111.488	-50.7418	-86.6863	100.937	-66.9719	-111.286	94.9091	-97.0526	-115.311	130.912	-67.0374	-76.138	123.919	-91.4288	-88.8342	112.962	-114.351	-77.9425	122.912	-31.2623	-40.3026	132.961	-23.3101	-13.3169	97.8895	-22.6929	-22.7607	
41	0.341667	67.6451	-51.9014	-0.616111	52.9585	-84.2326	-15.1528	62.6108	-107.33	-37.9697	87.1387	-117.375	-47.5834	55.4035	-55.9344	-75.4239	42.3629	-75.7291	-94.4409	29.9934	-98.1312	-101.343	78.2556	-57.9474	-90.4207	68.547	-74.7885	-111.872	54.148	-104.355	-126.149	100.41	-68.8654	-84.3543	88.8937	-84.9329	-102.248	78.0544	-119.034	-100.359	120.267	-84.019	-66.4326	104.823	-109.098	-76.1801	96.7025	-128.185	-61.4922	119.677	-42.0397	-37.0997	127.381	-35.9273	-14.2212	90.854	-27.4729	-20.9495	
42	0.35	64.1811	-44.5266	1.20162	42.8437	-72.8427	-8.61736	41.7535	-101.681	-28.5159	63.9973	-118.701	-37.6661	52.0861	-58.1636	-74.5314	35.8117	-72.6587	-88.1307	18.1268	-93.2572	-93.4459	73.3759	-65.0541	-86.2644	59.0079	-78.3926	-103.951	35.4591	-104.369	-114.534	87.1561	-75.7725	-75.3463	72.7795	-95.1512	-94.1248	54.4058	-117.428	-89.9003	104.757	-95.8907	-59.1245	87.6629	-116.877	-65.7313	69.3679	-129.744	-44.4695	115.319	-51.4705	-33.7753	126.289	-45.0807	-12.1307	91.0258	-30.0885	-22.9246	
43	0.358333	62.2393	-28.5414	2.32854	36.3967	-51.6914	-8.17903	25.3504	-77.6627	-22.6882	36.8931	-99.9954	-29.0903	55.0348	-45.8697	-70.5074	27.9913	-56.5969	-90.1274	8.65224	-70.0344	-93.6289	69.324	-59.4402	-78.4038	47.0404	-68.5979	-101.169	20.2218	-86.5877	-108.441	79.517	-74.7664	-70.3313	55.2594	-90.5113	-88.0037	33.972	-108.638	-80.0845	85.3018	-97.8663	-53.9734	60.4675	-109.131	-55.776	43.4302	-113.144	-32.4611	110.621	-56.4626	-29.6227	123.524	-50.9291	-8.51389	98.7496	-29.5811	-18.7559	
44	0.366667	68.8116	-16.5432	-2.57261	36.4195	-23.8343	-10.9969	16.8288	-45.5585	-23.7769	16.5671	-72.2939	-28.7679	57.0674	-31.9457	-77.0376	35.2295	-34.2912	-92.7159	8.57589	-45.13	-98.6585	65.1467	-51.1595	-80.6509	42.9963	-58.5304	-101.395	9.68187	-63.219	-108.569	66.3401	-70.2978	-70.6456	40.2641	-76.2762	-85.6218	13.2963	-82.252	-75.8524	62.9908	-85.8436	-47.349	34.8947	-91.583	-48.08	20.4682	-80.3806	-28.3055	103.041	-61.3222	-30.56	116.237	-57.5273	-0.245637	102.502	-26.703	-18.4862	
